<svg width="33" height="35" viewBox="0 0 33 35" fill="none" xmlns="http://www.w3.org/2000/svg">
<g clip-path="url(#clip0_4_23)">
<path d="M22.1667 0L33.0001 10.9375H22.1667V0Z" fill="#FF99B7"/>
<path opacity="0.4" d="M22.1667 0V10.9375H33V30.625C33 33.0381 31.0568 35 28.6667 35H11.3333C8.93984 35 7 33.0381 7 30.625V4.375C7 1.9585 8.93984 0 11.3333 0H22.1667Z" fill="#CEE8FF"/>
<path d="M20.5 16H6.5C2.91015 16 0 18.9101 0 22.5C0 26.0899 2.91015 29 6.5 29H20.5C24.0899 29 27 26.0899 27 22.5C27 18.9101 24.0899 16 20.5 16Z" fill="#FF99B7"/>
<path d="M13.0841 23.57C13.0841 23.3367 13.1207 23.13 13.1941 22.95C13.2741 22.77 13.3707 22.61 13.4841 22.47C13.6041 22.33 13.7307 22.2 13.8641 22.08C13.9974 21.96 14.1207 21.8467 14.2341 21.74C14.3541 21.6267 14.4507 21.51 14.5241 21.39C14.6041 21.27 14.6441 21.1367 14.6441 20.99C14.6441 20.75 14.5441 20.5567 14.3441 20.41C14.1507 20.2633 13.8907 20.19 13.5641 20.19C13.2507 20.19 12.9707 20.2567 12.7241 20.39C12.4774 20.5167 12.2741 20.6967 12.1141 20.93L10.9041 20.22C11.1707 19.8133 11.5407 19.49 12.0141 19.25C12.4874 19.0033 13.0607 18.88 13.7341 18.88C14.2341 18.88 14.6741 18.9533 15.0541 19.1C15.4341 19.24 15.7307 19.4467 15.9441 19.72C16.1641 19.9933 16.2741 20.33 16.2741 20.73C16.2741 20.99 16.2341 21.22 16.1541 21.42C16.0741 21.62 15.9707 21.7933 15.8441 21.94C15.7174 22.0867 15.5807 22.2233 15.4341 22.35C15.2941 22.4767 15.1607 22.6 15.0341 22.72C14.9074 22.84 14.8007 22.9667 14.7141 23.1C14.6341 23.2333 14.5941 23.39 14.5941 23.57H13.0841ZM13.8441 26.08C13.5641 26.08 13.3341 25.99 13.1541 25.81C12.9741 25.63 12.8841 25.4167 12.8841 25.17C12.8841 24.9167 12.9741 24.7067 13.1541 24.54C13.3341 24.3667 13.5641 24.28 13.8441 24.28C14.1307 24.28 14.3607 24.3667 14.5341 24.54C14.7141 24.7067 14.8041 24.9167 14.8041 25.17C14.8041 25.4167 14.7141 25.63 14.5341 25.81C14.3607 25.99 14.1307 26.08 13.8441 26.08Z" fill="white"/>
</g>
<defs>
<clipPath id="clip0_4_23">
<rect width="33" height="35" fill="white"/>
</clipPath>
</defs>
</svg>
