<svg width="33" height="35" viewBox="0 0 33 35" fill="none" xmlns="http://www.w3.org/2000/svg">
<path d="M22.1667 0L33.0001 10.9375H22.1667V0Z" fill="#E62A50"/>
<path opacity="0.4" d="M22.1667 0V10.9375H33V30.625C33 33.0381 31.0568 35 28.6667 35H11.3333C8.93984 35 7 33.0381 7 30.625V4.375C7 1.9585 8.93984 0 11.3333 0H22.1667Z" fill="#CEE8FF"/>
<path d="M20.5 16H6.5C2.91015 16 0 18.9101 0 22.5C0 26.0899 2.91015 29 6.5 29H20.5C24.0899 29 27 26.0899 27 22.5C27 18.9101 24.0899 16 20.5 16Z" fill="#E62A50"/>
<path d="M2.83 26V19H5.86C6.48667 19 7.02667 19.1033 7.48 19.31C7.93333 19.51 8.28333 19.8 8.53 20.18C8.77667 20.56 8.9 21.0133 8.9 21.54C8.9 22.06 8.77667 22.51 8.53 22.89C8.28333 23.27 7.93333 23.5633 7.48 23.77C7.02667 23.97 6.48667 24.07 5.86 24.07H3.73L4.45 23.34V26H2.83ZM4.45 23.52L3.73 22.75H5.77C6.27 22.75 6.64333 22.6433 6.89 22.43C7.13667 22.2167 7.26 21.92 7.26 21.54C7.26 21.1533 7.13667 20.8533 6.89 20.64C6.64333 20.4267 6.27 20.32 5.77 20.32H3.73L4.45 19.55V23.52ZM10.3066 26V19H13.4866C14.2466 19 14.9166 19.1467 15.4966 19.44C16.0766 19.7267 16.5299 20.13 16.8566 20.65C17.1832 21.17 17.3466 21.7867 17.3466 22.5C17.3466 23.2067 17.1832 23.8233 16.8566 24.35C16.5299 24.87 16.0766 25.2767 15.4966 25.57C14.9166 25.8567 14.2466 26 13.4866 26H10.3066ZM11.9266 24.67H13.4066C13.8732 24.67 14.2766 24.5833 14.6166 24.41C14.9632 24.23 15.2299 23.9767 15.4166 23.65C15.6099 23.3233 15.7066 22.94 15.7066 22.5C15.7066 22.0533 15.6099 21.67 15.4166 21.35C15.2299 21.0233 14.9632 20.7733 14.6166 20.6C14.2766 20.42 13.8732 20.33 13.4066 20.33H11.9266V24.67ZM20.3183 22.15H23.6783V23.45H20.3183V22.15ZM20.4383 26H18.8183V19H24.1083V20.3H20.4383V26Z" fill="white"/>
</svg>
