<svg width="33" height="35" viewBox="0 0 33 35" fill="none" xmlns="http://www.w3.org/2000/svg">
<path d="M22.1667 0L33.0001 10.9375H22.1667V0Z" fill="#0BDE78"/>
<path opacity="0.4" d="M22.1667 0V10.9375H33V30.625C33 33.0381 31.0568 35 28.6667 35H11.3333C8.93984 35 7 33.0381 7 30.625V4.375C7 1.9585 8.93984 0 11.3333 0H22.1667Z" fill="#CEE8FF"/>
<path d="M20.5 16H6.5C2.91015 16 0 18.9101 0 22.5C0 26.0899 2.91015 29 6.5 29H20.5C24.0899 29 27 26.0899 27 22.5C27 18.9101 24.0899 16 20.5 16Z" fill="#0BDE78"/>
<path d="M4.12 26.12C3.64667 26.12 3.21 26.0333 2.81 25.86C2.41667 25.68 2.09333 25.4267 1.84 25.1L2.74 24.02C2.93333 24.2733 3.13667 24.4667 3.35 24.6C3.56333 24.7267 3.79333 24.79 4.04 24.79C4.7 24.79 5.03 24.4033 5.03 23.63V20.3H2.57V19H6.64V23.54C6.64 24.4067 6.42667 25.0533 6 25.48C5.57333 25.9067 4.94667 26.12 4.12 26.12ZM8.49016 26V19H11.5202C12.1468 19 12.6868 19.1033 13.1402 19.31C13.5935 19.51 13.9435 19.8 14.1902 20.18C14.4368 20.56 14.5602 21.0133 14.5602 21.54C14.5602 22.06 14.4368 22.51 14.1902 22.89C13.9435 23.27 13.5935 23.5633 13.1402 23.77C12.6868 23.97 12.1468 24.07 11.5202 24.07H9.39016L10.1102 23.34V26H8.49016ZM10.1102 23.52L9.39016 22.75H11.4302C11.9302 22.75 12.3035 22.6433 12.5502 22.43C12.7968 22.2167 12.9202 21.92 12.9202 21.54C12.9202 21.1533 12.7968 20.8533 12.5502 20.64C12.3035 20.4267 11.9302 20.32 11.4302 20.32H9.39016L10.1102 19.55V23.52ZM19.4444 26.12C18.891 26.12 18.381 26.0333 17.9144 25.86C17.4544 25.68 17.051 25.4267 16.7044 25.1C16.3644 24.7733 16.0977 24.39 15.9044 23.95C15.7177 23.51 15.6244 23.0267 15.6244 22.5C15.6244 21.9733 15.7177 21.49 15.9044 21.05C16.0977 20.61 16.3677 20.2267 16.7144 19.9C17.061 19.5733 17.4677 19.3233 17.9344 19.15C18.401 18.97 18.9144 18.88 19.4744 18.88C20.0944 18.88 20.651 18.9833 21.1444 19.19C21.6444 19.3967 22.0644 19.6967 22.4044 20.09L21.3644 21.05C21.111 20.7833 20.8344 20.5867 20.5344 20.46C20.2344 20.3267 19.9077 20.26 19.5544 20.26C19.2144 20.26 18.9044 20.3133 18.6244 20.42C18.3444 20.5267 18.101 20.68 17.8944 20.88C17.6944 21.08 17.5377 21.3167 17.4244 21.59C17.3177 21.8633 17.2644 22.1667 17.2644 22.5C17.2644 22.8267 17.3177 23.1267 17.4244 23.4C17.5377 23.6733 17.6944 23.9133 17.8944 24.12C18.101 24.32 18.341 24.4733 18.6144 24.58C18.8944 24.6867 19.201 24.74 19.5344 24.74C19.8544 24.74 20.1644 24.69 20.4644 24.59C20.771 24.4833 21.0677 24.3067 21.3544 24.06L22.2744 25.23C21.8944 25.5167 21.451 25.7367 20.9444 25.89C20.4444 26.0433 19.9444 26.12 19.4444 26.12ZM20.7944 25.02V22.39H22.2744V25.23L20.7944 25.02Z" fill="white"/>
</svg>
