<svg width="91" height="79" viewBox="0 0 91 79" fill="none" xmlns="http://www.w3.org/2000/svg">
<circle cx="19.4369" cy="20.4174" r="17.9369" fill="white" stroke="#5B94C7" stroke-width="3"/>
<path d="M33.5726 31.9032C30.0311 28.0957 25.0079 25.7188 19.4367 25.7188C13.8655 25.7188 8.84226 28.0957 5.30078 31.9032" stroke="#5B94C7" stroke-width="3"/>
<circle cx="19.4371" cy="19.5348" r="5.56796" fill="#CEE8FF" stroke="#5B94C7" stroke-width="3"/>
<circle cx="71.5629" cy="59.2904" r="17.9369" fill="white" stroke="#5B94C7" stroke-width="3"/>
<path d="M85.6986 70.7763C82.1571 66.9687 77.1339 64.5918 71.5627 64.5918C65.9915 64.5918 60.9682 66.9687 57.4268 70.7763" stroke="#5B94C7" stroke-width="3"/>
<circle cx="71.5631" cy="58.4078" r="5.56796" fill="#CEE8FF" stroke="#5B94C7" stroke-width="3"/>
<rect x="31.5391" y="13.9668" width="39.4078" height="18.2039" rx="3.5" fill="white" stroke="#5B94C7" stroke-width="3"/>
<rect opacity="0.5" x="51.4043" y="18.6523" width="3.53398" height="15.1801" rx="1.76699" transform="rotate(90 51.4043 18.6523)" fill="#5B94C7"/>
<rect opacity="0.5" x="60.0781" y="23.9531" width="3.53398" height="23.8544" rx="1.76699" transform="rotate(90 60.0781 23.9531)" fill="#5B94C7"/>
<rect opacity="0.5" x="66.2627" y="23.9531" width="3.53398" height="4.41748" rx="1.76699" transform="rotate(90 66.2627 23.9531)" fill="#5B94C7"/>
<rect x="20.9365" y="52.8398" width="39.4078" height="18.2039" rx="3.5" fill="white" stroke="#5B94C7" stroke-width="3"/>
<rect opacity="0.5" x="40.8018" y="57.5234" width="3.53398" height="15.1801" rx="1.76699" transform="rotate(90 40.8018 57.5234)" fill="#5B94C7"/>
<rect opacity="0.5" x="49.4756" y="62.8242" width="3.53398" height="23.8544" rx="1.76699" transform="rotate(90 49.4756 62.8242)" fill="#5B94C7"/>
<rect opacity="0.5" x="55.6602" y="62.8242" width="3.53398" height="4.41748" rx="1.76699" transform="rotate(90 55.6602 62.8242)" fill="#5B94C7"/>
<path opacity="0.5" d="M30.8658 31.4066C24.0995 28.0091 15.8159 27.2844 6.74184 31.6284C6.40017 31.7919 6.17395 32.1471 6.298 32.505C6.82057 34.0128 9.27995 36.5499 16.3448 38.0857C23.6906 39.6826 28.9437 35.6268 31.1912 32.7661C31.5471 32.3131 31.3806 31.6651 30.8658 31.4066Z" fill="#5B94C7"/>
<path opacity="0.5" d="M83.8756 70.9203C77.1093 67.5228 68.8257 66.798 59.7516 71.142C59.4099 71.3056 59.1837 71.6607 59.3078 72.0186C59.8303 73.5264 62.2897 76.0635 69.3545 77.5994C76.7003 79.1963 81.9535 75.1405 84.201 72.2798C84.5569 71.8268 84.3904 71.1788 83.8756 70.9203Z" fill="#5B94C7"/>
</svg>
