<svg width="131" height="102" viewBox="0 0 131 102" fill="none" xmlns="http://www.w3.org/2000/svg">
<ellipse cx="68" cy="95.5" rx="31" ry="6.5" fill="#DFEEFC"/>
<circle cx="36.5" cy="72.5" r="4.5" fill="#DFEEFC"/>
<circle cx="18.5" cy="35.5" r="4.5" fill="#DFEEFC"/>
<circle cx="110.5" cy="11.5" r="4.5" fill="#DFEEFC"/>
<circle cx="117.5" cy="76.5" r="3" stroke="#CEE8FF" stroke-width="3"/>
<circle cx="40.5" cy="4.5" r="3" stroke="#CEE8FF" stroke-width="3"/>
<circle cx="4.5" cy="63.5" r="3" stroke="#CEE8FF" stroke-width="3"/>
<circle cx="126.5" cy="47.5" r="4.5" fill="#DFEEFC"/>
<path d="M85.2761 33.408C83.6761 33.408 78.2761 30.408 75.7761 28.908C72.7762 28.4078 72.7761 20.9082 71.7761 19.4082C70.7761 17.9082 68.7761 19.4082 68.2761 20.9082C67.7761 22.4082 66.2761 23.9082 65.2761 23.9082C64.2761 23.9082 62.7761 22.9082 61.2761 23.9082C59.7761 24.9082 56.2761 25.4079 55.2761 25.4082C54.2761 25.4085 55.2761 22.4079 55.2761 19.9082C55.2761 17.4085 52.7761 17.9082 52.2761 18.4082C51.7761 18.9082 48.7761 20.9079 47.2761 20.4079C45.7761 19.9079 45.2761 21.4079 45.7761 22.4079C46.2761 23.4079 45.7761 24.4079 43.7761 25.4079C41.7761 26.4079 42.2761 24.408 38.7761 23.408C35.2761 22.408 34.2761 25.908 35.2761 27.408C36.2761 28.908 35.7761 30.908 35.7761 32.408C35.7761 33.908 35.7761 36.408 33.7761 36.408C32.1761 36.408 30.4428 37.408 29.7761 37.908C25.2761 44.408 30.2761 48.408 34.2761 50.408C38.2761 52.408 39.2761 49.908 40.7761 48.908C42.2761 47.908 43.7761 49.408 43.7761 51.408C43.7761 53.408 51.2761 54.908 52.7761 55.908C54.2761 56.908 52.7761 58.408 53.7761 60.408C54.7761 62.408 56.2761 60.408 57.2762 62.908C58.2762 65.4079 57.7762 67.4078 57.2762 69.4077L57.2762 69.408C56.7762 71.408 59.2762 71.408 60.2761 71.908C61.2761 72.408 61.2761 73.908 63.2762 75.408C65.2762 76.908 65.2762 76.908 65.2762 78.4079V78.408C65.2762 79.908 65.7762 80.908 65.2762 81.908C64.7762 82.908 61.2761 83.908 60.2761 84.908C59.2761 85.908 57.7761 86.408 61.2761 88.408C64.7761 90.408 66.2761 93.908 67.7761 93.908C69.2761 93.908 70.2761 94.908 74.2761 86.408C78.2761 77.908 78.2761 77.408 85.2761 73.908C92.2761 70.408 92.7761 64.908 93.7761 61.908C94.7761 58.908 93.7761 55.908 94.7761 53.908C95.7761 51.908 100.5 51 102.5 48.5C104.5 46 103.5 43.5 103.5 41C103.5 38.5 99.2761 37.408 98.7761 37.408C98.2761 37.408 95.2761 35.908 93.7761 34.908C92.2761 33.908 87.2761 33.408 85.2761 33.408Z" fill="white" stroke="#5B94C7" stroke-width="3" stroke-linecap="round"/>
<path opacity="0.5" d="M36 32.5H47.5M103.5 41H84.5M78 41H72.5M95.5 53H80.5M89.5 70.5H81.5" stroke="#5B94C7" stroke-width="3" stroke-linecap="round"/>
<path opacity="0.5" d="M54 32.5H60" stroke="#5B94C7" stroke-width="3" stroke-linecap="round"/>
<path opacity="0.5" d="M66 78.5H72M56 61.5H64.5H66" stroke="#5B94C7" stroke-width="3" stroke-linecap="round"/>
<path opacity="0.5" d="M72 61.5H75.5" stroke="#5B94C7" stroke-width="3" stroke-linecap="round"/>
<mask id="path-14-inside-1_9880_614870" fill="white">
<path fill-rule="evenodd" clip-rule="evenodd" d="M96.5065 28.2934C98.0617 26.4623 99 24.0907 99 21.5C99 15.701 94.299 11 88.5 11C82.701 11 78 15.701 78 21.5C78 24.0907 78.9382 26.4622 80.4935 28.2934L87.634 40.6611C88.0189 41.3277 88.9811 41.3277 89.366 40.6611L96.5065 28.2934Z"/>
</mask>
<path fill-rule="evenodd" clip-rule="evenodd" d="M96.5065 28.2934C98.0617 26.4623 99 24.0907 99 21.5C99 15.701 94.299 11 88.5 11C82.701 11 78 15.701 78 21.5C78 24.0907 78.9382 26.4622 80.4935 28.2934L87.634 40.6611C88.0189 41.3277 88.9811 41.3277 89.366 40.6611L96.5065 28.2934Z" fill="#CEE8FF"/>
<path d="M96.5065 28.2934L94.2199 26.3514L94.0442 26.5583L93.9084 26.7934L96.5065 28.2934ZM80.4935 28.2934L83.0916 26.7934L82.9558 26.5583L82.7801 26.3513L80.4935 28.2934ZM87.634 40.6611L85.0359 42.1611L85.0359 42.1611L87.634 40.6611ZM89.366 40.6611L91.9641 42.1611L89.366 40.6611ZM96 21.5C96 23.3529 95.3319 25.0421 94.2199 26.3514L98.7931 30.2355C100.792 27.8824 102 24.8285 102 21.5H96ZM88.5 14C92.6421 14 96 17.3579 96 21.5H102C102 14.0442 95.9558 8 88.5 8V14ZM81 21.5C81 17.3579 84.3579 14 88.5 14V8C81.0442 8 75 14.0442 75 21.5H81ZM82.7801 26.3513C81.6681 25.0421 81 23.3529 81 21.5H75C75 24.8285 76.2084 27.8824 78.2069 30.2354L82.7801 26.3513ZM90.232 39.1611L83.0916 26.7934L77.8954 29.7934L85.0359 42.1611L90.232 39.1611ZM86.7679 39.1611C87.5378 37.8277 89.4622 37.8278 90.232 39.1611L85.0359 42.1611C86.5755 44.8277 90.4245 44.8278 91.9641 42.1611L86.7679 39.1611ZM93.9084 26.7934L86.7679 39.1611L91.9641 42.1611L99.1046 29.7934L93.9084 26.7934Z" fill="#5B94C7" mask="url(#path-14-inside-1_9880_614870)"/>
<circle cx="88.5" cy="21.5" r="3" fill="white" stroke="#5B94C7" stroke-width="3"/>
</svg>
