<svg width="33" height="35" viewBox="0 0 33 35" fill="none" xmlns="http://www.w3.org/2000/svg">
<g clip-path="url(#clip0_4_30)">
<path d="M22.1667 0L33.0001 10.9375H22.1667V0Z" fill="#DD9BF4"/>
<path opacity="0.4" d="M22.1667 0V10.9375H33V30.625C33 33.0381 31.0568 35 28.6667 35H11.3333C8.93984 35 7 33.0381 7 30.625V4.375C7 1.9585 8.93984 0 11.3333 0H22.1667Z" fill="#CEE8FF"/>
<path d="M20.5 16H6.5C2.91015 16 0 18.9101 0 22.5C0 26.0899 2.91015 29 6.5 29H20.5C24.0899 29 27 26.0899 27 22.5C27 18.9101 24.0899 16 20.5 16Z" fill="#DD9BF4"/>
<path d="M2.83 26V19H5.86C6.48667 19 7.02667 19.1033 7.48 19.31C7.93333 19.51 8.28333 19.8 8.53 20.18C8.77667 20.56 8.9 21.0133 8.9 21.54C8.9 22.06 8.77667 22.51 8.53 22.89C8.28333 23.27 7.93333 23.5633 7.48 23.77C7.02667 23.97 6.48667 24.07 5.86 24.07H3.73L4.45 23.34V26H2.83ZM4.45 23.52L3.73 22.75H5.77C6.27 22.75 6.64333 22.6433 6.89 22.43C7.13667 22.2167 7.26 21.92 7.26 21.54C7.26 21.1533 7.13667 20.8533 6.89 20.64C6.64333 20.4267 6.27 20.32 5.77 20.32H3.73L4.45 19.55V23.52ZM10.3066 26V19H11.6466L15.7766 24.04H15.1266V19H16.7266V26H15.3966L11.2566 20.96H11.9066V26H10.3066ZM22.0127 26.12C21.4594 26.12 20.9494 26.0333 20.4827 25.86C20.0227 25.68 19.6194 25.4267 19.2727 25.1C18.9327 24.7733 18.6661 24.39 18.4727 23.95C18.2861 23.51 18.1927 23.0267 18.1927 22.5C18.1927 21.9733 18.2861 21.49 18.4727 21.05C18.6661 20.61 18.9361 20.2267 19.2827 19.9C19.6294 19.5733 20.0361 19.3233 20.5027 19.15C20.9694 18.97 21.4827 18.88 22.0427 18.88C22.6627 18.88 23.2194 18.9833 23.7127 19.19C24.2127 19.3967 24.6327 19.6967 24.9727 20.09L23.9327 21.05C23.6794 20.7833 23.4027 20.5867 23.1027 20.46C22.8027 20.3267 22.4761 20.26 22.1227 20.26C21.7827 20.26 21.4727 20.3133 21.1927 20.42C20.9127 20.5267 20.6694 20.68 20.4627 20.88C20.2627 21.08 20.1061 21.3167 19.9927 21.59C19.8861 21.8633 19.8327 22.1667 19.8327 22.5C19.8327 22.8267 19.8861 23.1267 19.9927 23.4C20.1061 23.6733 20.2627 23.9133 20.4627 24.12C20.6694 24.32 20.9094 24.4733 21.1827 24.58C21.4627 24.6867 21.7694 24.74 22.1027 24.74C22.4227 24.74 22.7327 24.69 23.0327 24.59C23.3394 24.4833 23.6361 24.3067 23.9227 24.06L24.8427 25.23C24.4627 25.5167 24.0194 25.7367 23.5127 25.89C23.0127 26.0433 22.5127 26.12 22.0127 26.12ZM23.3627 25.02V22.39H24.8427V25.23L23.3627 25.02Z" fill="white"/>
</g>
<defs>
<clipPath id="clip0_4_30">
<rect width="33" height="35" fill="white"/>
</clipPath>
</defs>
</svg>
