<svg width="127" height="105" viewBox="0 0 127 105" fill="none" xmlns="http://www.w3.org/2000/svg">
<circle cx="18.5" cy="75.5" r="4.5" fill="#DFEEFC"/>
<circle cx="18.5" cy="28.5" r="4.5" fill="#DFEEFC"/>
<circle cx="101.5" cy="13.5" r="4.5" fill="#DFEEFC"/>
<circle cx="106.5" cy="69.5" r="3" stroke="#CEE8FF" stroke-width="3"/>
<circle cx="45.5" cy="4.5" r="3" stroke="#CEE8FF" stroke-width="3"/>
<circle cx="4.5" cy="56.5" r="3" stroke="#CEE8FF" stroke-width="3"/>
<circle cx="122.5" cy="42.5" r="4.5" fill="#DFEEFC"/>
<rect x="38.5" y="25.5" width="50" height="65" rx="3.5" stroke="#5B94C7" stroke-width="3" stroke-dasharray="3 3"/>
<rect opacity="0.5" x="38.5" y="25.5" width="50" height="65" rx="3.5" fill="#5B94C7" stroke="#5B94C7" stroke-width="3" stroke-dasharray="3 3"/>
<mask id="path-10-inside-1_1_2" fill="white">
<path fill-rule="evenodd" clip-rule="evenodd" d="M80.3737 17.2627H49C46.2386 17.2627 44 19.5013 44 22.2627V81.999C44 84.7605 46.2386 86.999 49 86.999H92C94.7614 86.999 97 84.7605 97 81.999V33.4473L80.3737 17.2627Z"/>
</mask>
<path fill-rule="evenodd" clip-rule="evenodd" d="M80.3737 17.2627H49C46.2386 17.2627 44 19.5013 44 22.2627V81.999C44 84.7605 46.2386 86.999 49 86.999H92C94.7614 86.999 97 84.7605 97 81.999V33.4473L80.3737 17.2627Z" fill="white"/>
<path d="M80.3737 17.2627L82.4662 15.113L81.5927 14.2627H80.3737V17.2627ZM97 33.4473H100V32.1809L99.0926 31.2976L97 33.4473ZM49 20.2627H80.3737V14.2627H49V20.2627ZM47 22.2627C47 21.1581 47.8954 20.2627 49 20.2627V14.2627C44.5817 14.2627 41 17.8444 41 22.2627H47ZM47 81.999V22.2627H41V81.999H47ZM49 83.999C47.8954 83.999 47 83.1036 47 81.999H41C41 86.4173 44.5817 89.999 49 89.999V83.999ZM92 83.999H49V89.999H92V83.999ZM94 81.999C94 83.1036 93.1046 83.999 92 83.999V89.999C96.4183 89.999 100 86.4173 100 81.999H94ZM94 33.4473V81.999H100V33.4473H94ZM99.0926 31.2976L82.4662 15.113L78.2811 19.4124L94.9074 35.597L99.0926 31.2976Z" fill="#5B94C7" mask="url(#path-10-inside-1_1_2)"/>
<circle opacity="0.5" cx="55" cy="49" r="2.5" stroke="#5B94C7" stroke-width="3"/>
<circle opacity="0.5" cx="57.5" cy="32.5" r="5" fill="#5B94C7" stroke="#5B94C7" stroke-width="3"/>
<circle opacity="0.5" cx="55" cy="61" r="2.5" stroke="#5B94C7" stroke-width="3"/>
<circle opacity="0.5" cx="55" cy="73" r="2.5" stroke="#5B94C7" stroke-width="3"/>
<rect opacity="0.5" x="82" y="59" width="4" height="18" rx="2" transform="rotate(90 82 59)" fill="#5B94C7"/>
<rect opacity="0.5" x="89" y="47" width="4" height="25" rx="2" transform="rotate(90 89 47)" fill="#5B94C7"/>
<rect opacity="0.5" x="76" y="71" width="4" height="12" rx="2" transform="rotate(90 76 71)" fill="#5B94C7"/>
<path d="M95.1677 31.7724L81.186 18.5897C80.5481 17.9882 79.5 18.4405 79.5 19.3173V32.5C79.5 33.0523 79.9477 33.5 80.5 33.5H94.4817C95.3868 33.5 95.8263 32.3934 95.1677 31.7724Z" fill="#CEE8FF" stroke="#5B94C7" stroke-width="3" stroke-linecap="round"/>
<ellipse cx="66" cy="101" rx="31" ry="4" fill="#DFEEFC"/>
<path d="M84.2174 70.4786L83.056 78.6079C83.0328 78.7703 83.2044 78.89 83.3488 78.8122L90.9183 74.7364C90.9452 74.7219 90.9684 74.7014 90.9862 74.6765L109.209 49.1644C109.274 49.0739 109.252 48.9481 109.161 48.8843L103.364 44.8262C103.275 44.764 103.153 44.784 103.088 44.8713L84.2544 70.3881C84.2348 70.4147 84.222 70.4458 84.2174 70.4786Z" fill="white" stroke="#5B94C7" stroke-width="3"/>
<path d="M100.143 50.2246L105.653 53.898" stroke="#5B94C7" stroke-width="3"/>
<path d="M84.2245 71.6531L87.7146 71.1546C88.1793 71.0882 88.6276 71.3539 88.7924 71.7934L90.3469 75.9389" stroke="#5B94C7" stroke-width="3"/>
<path d="M101.98 46.5511L104.719 42.7838C105.918 41.1364 108.215 40.7524 109.883 41.9205V41.9205C111.595 43.119 111.992 45.4886 110.762 47.1787L108.102 50.8368" stroke="#5B94C7" stroke-width="3"/>
<path opacity="0.5" d="M107.862 43.9255L88.1419 71.3143C87.981 71.5379 87.8671 71.7918 87.8074 72.0607C87.4053 73.87 89.4373 75.2286 90.9557 74.1658L92.3949 73.1584C92.6601 72.9727 92.89 72.7411 93.0736 72.4745L111.147 46.2392C111.538 45.6712 111.611 44.9421 111.339 44.308C110.723 42.8714 108.775 42.6571 107.862 43.9255Z" fill="#5B94C7"/>
</svg>
