<svg width="33" height="35" viewBox="0 0 33 35" fill="none" xmlns="http://www.w3.org/2000/svg">
<path d="M22.1665 0L32.9998 10.9375H22.1665V0Z" fill="#529AF3"/>
<path opacity="0.4" d="M22.1667 0V10.9375H33V30.625C33 33.0381 31.0568 35 28.6667 35H11.3333C8.93984 35 7 33.0381 7 30.625V4.375C7 1.9585 8.93984 0 11.3333 0H22.1667Z" fill="#CEE8FF"/>
<rect y="16" width="27" height="13" rx="6.5" fill="#529AF3"/>
<path d="M1.83 26V19H5.01C5.77 19 6.44 19.1467 7.02 19.44C7.6 19.7267 8.05333 20.13 8.38 20.65C8.70667 21.17 8.87 21.7867 8.87 22.5C8.87 23.2067 8.70667 23.8233 8.38 24.35C8.05333 24.87 7.6 25.2767 7.02 25.57C6.44 25.8567 5.77 26 5.01 26H1.83ZM3.45 24.67H4.93C5.39667 24.67 5.8 24.5833 6.14 24.41C6.48667 24.23 6.75333 23.9767 6.94 23.65C7.13333 23.3233 7.23 22.94 7.23 22.5C7.23 22.0533 7.13333 21.67 6.94 21.35C6.75333 21.0233 6.48667 20.7733 6.14 20.6C5.8 20.42 5.39667 20.33 4.93 20.33H3.45V24.67ZM13.7417 26.12C13.1884 26.12 12.6751 26.03 12.2017 25.85C11.7351 25.67 11.3284 25.4167 10.9817 25.09C10.6417 24.7633 10.3751 24.38 10.1817 23.94C9.99505 23.5 9.90172 23.02 9.90172 22.5C9.90172 21.98 9.99505 21.5 10.1817 21.06C10.3751 20.62 10.6451 20.2367 10.9917 19.91C11.3384 19.5833 11.7451 19.33 12.2117 19.15C12.6784 18.97 13.1851 18.88 13.7317 18.88C14.2851 18.88 14.7917 18.97 15.2517 19.15C15.7184 19.33 16.1217 19.5833 16.4617 19.91C16.8084 20.2367 17.0784 20.62 17.2717 21.06C17.4651 21.4933 17.5617 21.9733 17.5617 22.5C17.5617 23.02 17.4651 23.5033 17.2717 23.95C17.0784 24.39 16.8084 24.7733 16.4617 25.1C16.1217 25.42 15.7184 25.67 15.2517 25.85C14.7917 26.03 14.2884 26.12 13.7417 26.12ZM13.7317 24.74C14.0451 24.74 14.3317 24.6867 14.5917 24.58C14.8584 24.4733 15.0917 24.32 15.2917 24.12C15.4917 23.92 15.6451 23.6833 15.7517 23.41C15.8651 23.1367 15.9217 22.8333 15.9217 22.5C15.9217 22.1667 15.8651 21.8633 15.7517 21.59C15.6451 21.3167 15.4917 21.08 15.2917 20.88C15.0984 20.68 14.8684 20.5267 14.6017 20.42C14.3351 20.3133 14.0451 20.26 13.7317 20.26C13.4184 20.26 13.1284 20.3133 12.8617 20.42C12.6017 20.5267 12.3717 20.68 12.1717 20.88C11.9717 21.08 11.8151 21.3167 11.7017 21.59C11.5951 21.8633 11.5417 22.1667 11.5417 22.5C11.5417 22.8267 11.5951 23.13 11.7017 23.41C11.8151 23.6833 11.9684 23.92 12.1617 24.12C12.3617 24.32 12.5951 24.4733 12.8617 24.58C13.1284 24.6867 13.4184 24.74 13.7317 24.74ZM22.3792 26.12C21.8392 26.12 21.3359 26.0333 20.8692 25.86C20.4092 25.68 20.0092 25.4267 19.6692 25.1C19.3292 24.7733 19.0626 24.39 18.8692 23.95C18.6826 23.51 18.5892 23.0267 18.5892 22.5C18.5892 21.9733 18.6826 21.49 18.8692 21.05C19.0626 20.61 19.3292 20.2267 19.6692 19.9C20.0159 19.5733 20.4192 19.3233 20.8792 19.15C21.3392 18.97 21.8426 18.88 22.3892 18.88C22.9959 18.88 23.5426 18.9867 24.0292 19.2C24.5226 19.4067 24.9359 19.7133 25.2692 20.12L24.2292 21.08C23.9892 20.8067 23.7226 20.6033 23.4292 20.47C23.1359 20.33 22.8159 20.26 22.4692 20.26C22.1426 20.26 21.8426 20.3133 21.5692 20.42C21.2959 20.5267 21.0592 20.68 20.8592 20.88C20.6592 21.08 20.5026 21.3167 20.3892 21.59C20.2826 21.8633 20.2292 22.1667 20.2292 22.5C20.2292 22.8333 20.2826 23.1367 20.3892 23.41C20.5026 23.6833 20.6592 23.92 20.8592 24.12C21.0592 24.32 21.2959 24.4733 21.5692 24.58C21.8426 24.6867 22.1426 24.74 22.4692 24.74C22.8159 24.74 23.1359 24.6733 23.4292 24.54C23.7226 24.4 23.9892 24.19 24.2292 23.91L25.2692 24.87C24.9359 25.2767 24.5226 25.5867 24.0292 25.8C23.5426 26.0133 22.9926 26.12 22.3792 26.12Z" fill="white"/>
</svg>
