<svg width="33" height="35" viewBox="0 0 33 35" fill="none" xmlns="http://www.w3.org/2000/svg">
<path d="M22.1665 0L32.9998 10.9375H22.1665V0Z" fill="#3F4551"/>
<path opacity="0.4" d="M22.1667 0V10.9375H33V30.625C33 33.0381 31.0568 35 28.6667 35H11.3333C8.93984 35 7 33.0381 7 30.625V4.375C7 1.9585 8.93984 0 11.3333 0H22.1667Z" fill="#CEE8FF"/>
<rect y="16" width="27" height="13" rx="6.5" fill="#3F4551"/>
<path d="M1.6225 25V19.75H4.0075C4.5775 19.75 5.08 19.86 5.515 20.08C5.95 20.295 6.29 20.5975 6.535 20.9875C6.78 21.3775 6.9025 21.84 6.9025 22.375C6.9025 22.905 6.78 23.3675 6.535 23.7625C6.29 24.1525 5.95 24.4575 5.515 24.6775C5.08 24.8925 4.5775 25 4.0075 25H1.6225ZM2.8375 24.0025H3.9475C4.2975 24.0025 4.6 23.9375 4.855 23.8075C5.115 23.6725 5.315 23.4825 5.455 23.2375C5.6 22.9925 5.6725 22.705 5.6725 22.375C5.6725 22.04 5.6 21.7525 5.455 21.5125C5.315 21.2675 5.115 21.08 4.855 20.95C4.6 20.815 4.2975 20.7475 3.9475 20.7475H2.8375V24.0025ZM10.6188 25.09C10.2038 25.09 9.81879 25.0225 9.46379 24.8875C9.11379 24.7525 8.80879 24.5625 8.54879 24.3175C8.29379 24.0725 8.09379 23.785 7.94879 23.455C7.80879 23.125 7.73879 22.765 7.73879 22.375C7.73879 21.985 7.80879 21.625 7.94879 21.295C8.09379 20.965 8.29629 20.6775 8.55629 20.4325C8.81629 20.1875 9.12129 19.9975 9.47129 19.8625C9.82129 19.7275 10.2013 19.66 10.6113 19.66C11.0263 19.66 11.4063 19.7275 11.7513 19.8625C12.1013 19.9975 12.4038 20.1875 12.6588 20.4325C12.9188 20.6775 13.1213 20.965 13.2663 21.295C13.4113 21.62 13.4838 21.98 13.4838 22.375C13.4838 22.765 13.4113 23.1275 13.2663 23.4625C13.1213 23.7925 12.9188 24.08 12.6588 24.325C12.4038 24.565 12.1013 24.7525 11.7513 24.8875C11.4063 25.0225 11.0288 25.09 10.6188 25.09ZM10.6113 24.055C10.8463 24.055 11.0613 24.015 11.2563 23.935C11.4563 23.855 11.6313 23.74 11.7813 23.59C11.9313 23.44 12.0463 23.2625 12.1263 23.0575C12.2113 22.8525 12.2538 22.625 12.2538 22.375C12.2538 22.125 12.2113 21.8975 12.1263 21.6925C12.0463 21.4875 11.9313 21.31 11.7813 21.16C11.6363 21.01 11.4638 20.895 11.2638 20.815C11.0638 20.735 10.8463 20.695 10.6113 20.695C10.3763 20.695 10.1588 20.735 9.95879 20.815C9.76379 20.895 9.59129 21.01 9.44129 21.16C9.29129 21.31 9.17379 21.4875 9.08879 21.6925C9.00879 21.8975 8.96879 22.125 8.96879 22.375C8.96879 22.62 9.00879 22.8475 9.08879 23.0575C9.17379 23.2625 9.28879 23.44 9.43379 23.59C9.58379 23.74 9.75879 23.855 9.95879 23.935C10.1588 24.015 10.3763 24.055 10.6113 24.055ZM17.1594 25.09C16.7544 25.09 16.3769 25.025 16.0269 24.895C15.6819 24.76 15.3819 24.57 15.1269 24.325C14.8719 24.08 14.6719 23.7925 14.5269 23.4625C14.3869 23.1325 14.3169 22.77 14.3169 22.375C14.3169 21.98 14.3869 21.6175 14.5269 21.2875C14.6719 20.9575 14.8719 20.67 15.1269 20.425C15.3869 20.18 15.6894 19.9925 16.0344 19.8625C16.3794 19.7275 16.7569 19.66 17.1669 19.66C17.6219 19.66 18.0319 19.74 18.3969 19.9C18.7669 20.055 19.0769 20.285 19.3269 20.59L18.5469 21.31C18.3669 21.105 18.1669 20.9525 17.9469 20.8525C17.7269 20.7475 17.4869 20.695 17.2269 20.695C16.9819 20.695 16.7569 20.735 16.5519 20.815C16.3469 20.895 16.1694 21.01 16.0194 21.16C15.8694 21.31 15.7519 21.4875 15.6669 21.6925C15.5869 21.8975 15.5469 22.125 15.5469 22.375C15.5469 22.625 15.5869 22.8525 15.6669 23.0575C15.7519 23.2625 15.8694 23.44 16.0194 23.59C16.1694 23.74 16.3469 23.855 16.5519 23.935C16.7569 24.015 16.9819 24.055 17.2269 24.055C17.4869 24.055 17.7269 24.005 17.9469 23.905C18.1669 23.8 18.3669 23.6425 18.5469 23.4325L19.3269 24.1525C19.0769 24.4575 18.7669 24.69 18.3969 24.85C18.0319 25.01 17.6194 25.09 17.1594 25.09ZM19.7022 25L21.9597 21.8875V22.7725L19.7997 19.75H21.1797L22.6722 21.8575L22.0947 21.865L23.5647 19.75H24.8847L22.7397 22.72V21.85L25.0122 25H23.6097L22.0647 22.7725H22.6197L21.0972 25H19.7022Z" fill="white"/>
</svg>
