<svg id="Camada_1" data-name="Camada 1" xmlns="http://www.w3.org/2000/svg" xmlns:xlink="http://www.w3.org/1999/xlink" viewBox="0 0 200 200"><defs><style>.cls-1{fill:#fff;}.cls-2{fill:#eff3f7;}.cls-3{fill:#0e4871;}.cls-4{fill:url(#Gradiente_sem_nome_24);}.cls-5{fill:#006bb2;}</style><linearGradient id="Gradiente_sem_nome_24" x1="9" y1="29" x2="67" y2="29" gradientUnits="userSpaceOnUse"><stop offset="0" stop-color="#da5978"/><stop offset="1" stop-color="#236fab"/></linearGradient></defs><rect class="cls-1" x="4.1" y="13" width="192" height="153.99" rx="4.55" transform="translate(-1.13 1.28) rotate(-0.73)"/><rect class="cls-2" x="9" y="25" width="183" height="8" rx="4"/><rect class="cls-2" x="9" y="58" width="44" height="18" rx="2.97"/><rect class="cls-3" x="9" y="51" width="22" height="5"/><rect class="cls-4" x="9" y="25" width="58" height="8" rx="4"/><rect class="cls-2" x="69" y="58" width="50" height="18" rx="2.97"/><rect class="cls-3" x="69" y="51" width="22" height="5"/><rect class="cls-2" x="9" y="102" width="44" height="18" rx="2.97"/><rect class="cls-3" x="9" y="95" width="30" height="5"/><rect class="cls-2" x="68" y="102" width="67" height="18" rx="2.97"/><rect class="cls-3" x="68" y="95" width="36" height="5"/><rect class="cls-2" x="130" y="58" width="50" height="18" rx="2.97"/><rect class="cls-3" x="130" y="51" width="22" height="5"/><rect class="cls-5" x="139" y="138" width="50" height="12" rx="1.54"/></svg>