<svg id="Camada_1" data-name="Camada 1" xmlns="http://www.w3.org/2000/svg" viewBox="0 0 200 200"><defs><style>.cls-1{fill:#fff;}.cls-2{fill:#eff3f7;}.cls-3{fill:#0e4871;}.cls-4{fill:#006bb2;}</style></defs><rect class="cls-1" x="4.1" y="13" width="192" height="153.99" rx="4.55" transform="translate(-1.13 1.28) rotate(-0.73)"/><rect class="cls-2" x="9" y="73" width="44" height="18" rx="2.97"/><rect class="cls-3" x="9" y="66" width="22" height="5"/><rect class="cls-2" x="69" y="73" width="50" height="18" rx="2.97"/><rect class="cls-3" x="69" y="66" width="22" height="5"/><rect class="cls-2" x="9" y="116" width="44" height="18" rx="2.97"/><rect class="cls-3" x="9" y="109" width="30" height="5"/><rect class="cls-2" x="68" y="116" width="67" height="18" rx="2.97"/><rect class="cls-3" x="68" y="109" width="36" height="5"/><rect class="cls-2" x="130" y="73" width="50" height="18" rx="2.97"/><rect class="cls-3" x="130" y="66" width="22" height="5"/><rect class="cls-4" x="139" y="138" width="50" height="12" rx="1.54"/><rect class="cls-2" x="8.83" y="31.72" width="44" height="18" rx="2.97"/><rect class="cls-3" x="8.83" y="24.72" width="22" height="5"/><rect class="cls-2" x="68.83" y="31.72" width="50" height="18" rx="2.97"/><rect class="cls-3" x="68.83" y="24.72" width="22" height="5"/></svg>