<svg width="1145" height="266" viewBox="0 0 1145 266" fill="none" xmlns="http://www.w3.org/2000/svg">
<path fill-rule="evenodd" clip-rule="evenodd" d="M106.464 240.373C104.107 240.373 101.662 240.29 99.198 240.125C77.595 238.655 57.315 231.649 38.922 219.301C24.651 209.71 11.561 196.968 0.0158691 181.428V172.732C18.287 199.289 50.377 231.651 99.553 234.995C101.955 235.157 104.303 235.239 106.532 235.239C118.774 235.239 129.637 232.966 138.82 228.484C144.207 225.856 151.63 221.149 156.403 213.644C161.171 206.155 161.819 197.886 158.179 190.957C152.328 179.828 136.342 173.275 114.321 172.98C96.028 172.732 82.064 167.695 72.818 158.011C59.43 143.849 59.874 124.159 60.041 116.747V115.101L65.051 115.163V116.913V116.954C64.904 123.794 64.516 141.963 76.412 154.445C84.651 163.111 97.406 167.623 114.321 167.856C147.065 168.27 158.639 180.99 162.624 188.535C167.179 197.116 166.455 207.284 160.639 216.434C157.73 221.019 152.036 227.593 141.426 232.878C131.435 237.852 119.672 240.373 106.464 240.373ZM105.503 252.345H102.123C67.613 251.471 33.287 236.177 0.099472 206.889V200.067C33.34 230.468 67.705 246.326 102.249 247.195C103.852 247.235 104.998 247.252 105.963 247.252C135.084 247.252 157.876 236.925 168.496 218.918C175.317 208.045 175.773 194.271 169.687 182.97C161.725 168.776 144.216 160.635 121.65 160.635C104.739 160.635 92.189 156.428 84.347 148.13C74.185 137.522 74.662 123.036 74.866 116.85V115.101L79.964 114.992V116.913C79.077 135.105 85.573 141.927 88.019 144.495C94.882 151.705 106.204 155.361 121.67 155.361C146.087 155.361 165.195 164.482 174.095 180.387C181.09 193.312 180.608 209.076 172.837 221.527C167.024 231.342 158.182 239.01 146.556 244.317C134.911 249.644 121.098 252.345 105.503 252.345ZM105.796 264.794C97.142 264.768 88.444 263.967 79.944 262.413C66.409 259.995 52.72 255.657 39.256 249.519C25.862 243.412 12.6735 235.537 0.0576706 226.113V219.565C25.818 239.444 53.743 252.517 80.821 257.366C89.298 258.867 97.685 259.628 105.749 259.628C120.951 259.628 134.797 257.002 146.901 251.823C159.169 246.583 169.118 238.964 176.472 229.177C188.308 213.444 191.073 194.736 183.869 179.135C174.995 159.918 153.136 148.647 122.318 147.4C89.717 146.049 89.717 128.434 89.717 116.778V116.623V115.101L94.795 115.163V116.706C94.727 128.74 94.657 141.183 122.527 142.333C166.775 144.144 182.829 164.848 188.461 177.028C196.499 194.388 193.517 215.051 180.484 232.304C172.613 242.732 162.061 250.854 149.121 256.445C136.288 261.985 121.711 264.794 105.796 264.794ZM158.931 265.834H158.93H145.794C161.341 260.461 174.728 251.211 184.506 239.074C193.224 228.262 198.908 215.26 200.512 202.463C204.022 174.574 188.93 151.406 161.125 142.001C151.934 139.114 142.426 137.15 132.865 136.163C117.044 134.072 104.547 132.42 104.547 115.101L109.578 115.034C109.578 127.36 116.481 128.756 133.492 130.986C143.4 132.032 153.237 134.082 162.729 137.079C192.982 147.282 209.387 172.593 205.542 203.136C204.017 215.237 199.221 227.283 191.673 237.971C183.453 249.615 172.131 259.25 158.932 265.834H158.931ZM182.088 265.876H182.086H172.946C184.092 259.023 193.82 249.654 201.076 238.768C221.39 207.341 219.253 166.053 196.312 146.732C171.721 126.03 151.709 123.761 130.521 121.36L130.441 121.354C126.963 120.981 124.238 120.667 121.608 120.334C120.238 120.101 119.32 118.837 119.518 117.456L119.414 117.394C119.555 116.108 120.634 115.142 121.921 115.142H122.235C125.588 115.567 128.846 115.939 131.005 116.183C152.976 118.641 173.728 120.964 199.53 142.705C224.445 163.662 227.039 207.979 205.312 241.496C199.074 250.955 191.261 259.157 182.089 265.875L182.088 265.876ZM23.937 265.959H0.172569L0.141068 265.927L0.141266 254.576C7.60627 259.265 15.61 263.092 23.939 265.947L23.937 265.959ZM62.914 265.959H45.42C29.566 260.315 14.3321 252.879 0.141266 243.857V237.852C19.452 250.531 40.57 259.985 62.916 265.947L62.914 265.959ZM114.3 19.39C62.258 19.39 19.918 62.326 19.918 115.101V115.143C19.903 117.069 19.984 127.351 23.141 140.583C27.461 158.63 35.692 173.972 46.946 184.953H47.029C62.529 199.949 83.909 207.552 110.581 207.552C114.224 207.552 117.821 207.426 121.273 207.179C126.62 206.801 128.863 204.025 128.749 202.174C128.639 200.371 126.565 198.431 122.271 198.431C121.947 198.431 121.612 198.442 121.273 198.462C118.055 198.668 114.837 198.773 111.709 198.773C99.185 198.773 87.847 197.096 78.011 193.788C68.248 190.508 59.905 185.599 53.214 179.197C38.16 164.798 30.528 142.475 30.528 112.849C30.528 90.23 39.282 68.915 55.178 52.833C62.902 45.024 71.865 38.897 81.819 34.623C92.095 30.189 103.016 27.941 114.279 27.941C160.206 27.941 197.775 65.815 198.025 112.368V125.189C201.825 127.692 205.402 130.501 208.655 133.533V112.389C207.214 60.24 165.768 19.39 114.3 19.39ZM195.372 266H195.356C208.185 254.219 218.004 240.192 223.747 225.425C229.51 210.553 231.174 194.892 228.558 180.134C223.731 152.615 204.278 129.915 177.789 120.893C176.46 120.416 175.766 118.949 176.242 117.622L176.258 117.58C176.612 116.584 177.561 115.914 178.619 115.914C178.942 115.914 179.225 115.962 179.46 116.059C184.145 117.76 188.69 119.864 192.969 122.311V112.492C192.859 91.35 184.635 71.47 169.812 56.513C154.968 41.519 135.253 33.262 114.3 33.262C70.919 33.262 35.626 69.048 35.626 113.036C35.626 141.062 42.723 162.108 56.719 175.589C69.199 187.603 87.718 193.695 111.761 193.695C114.824 193.695 117.897 193.601 120.897 193.416C121.272 193.395 121.645 193.384 122.005 193.384C129.722 193.384 133.439 197.674 133.701 201.925C133.863 204.048 133.1 206.195 131.554 207.971C129.367 210.484 125.805 212.039 121.524 212.35C117.497 212.6 113.801 212.728 110.539 212.728C82.417 212.728 59.826 204.631 43.393 188.664C15.9542 161.966 14.7989 122.809 14.8459 115.23V115.08C14.8459 59.511 59.461 14.302 114.3 14.302C168.54 14.302 212.207 57.35 213.712 112.306V138.787C217.457 143.02 220.739 147.595 223.464 152.379V112.451C221.688 52.259 173.738 5.10901 114.3 5.10901C54.095 5.10901 5.11417 54.779 5.11417 115.831C5.11417 147.91 17.482 177.436 39.047 196.837C47.97 204.86 58.198 211.015 69.449 215.129C80.669 219.234 92.926 221.315 105.879 221.315C110.886 221.315 116.178 220.986 121.608 220.336C136.86 218.484 146.525 208.006 145.981 199.384C145.72 195.362 143.307 192.049 139.003 189.803C134.713 187.571 128.53 186.392 121.122 186.392H120.542H120.479H120.417H120.354H120.265H120.135L120.018 186.394C119.44 186.403 118.897 186.412 118.348 186.412C94.484 186.412 75.955 179.923 63.275 167.126C54.898 158.635 44.96 142.857 45.185 115.914V115.163H50.263V115.976C50.137 141.169 59.281 155.71 66.973 163.472C78.557 175.287 95.872 181.278 118.437 181.278C119.147 181.278 119.863 181.272 120.584 181.262H121.524C147.991 181.262 150.866 194.875 151.116 199.047C151.827 209.982 141.019 223.183 122.318 225.445C116.893 226.108 111.425 226.444 106.067 226.444H105.942H105.848C78.649 226.444 54.424 217.54 35.793 200.693C13.1358 180.303 0.141266 149.372 0.141266 115.831L0.0780716 115.873C0.0785716 51.978 51.341 0 114.342 0C176.531 0 226.703 49.349 228.563 112.347V162.706C230.805 168.053 232.483 173.609 233.552 179.218C238.88 209.454 227.685 241.083 202.836 265.995L195.372 266Z" fill="white"/>
<path fill-rule="evenodd" clip-rule="evenodd" d="M766.116 148.419V168.166H786.603C792.388 168.166 796.126 164.261 796.126 158.218V158.348C796.136 158.04 796.135 157.714 796.11 157.291C795.755 152.302 791.558 148.394 786.556 148.394C786.353 148.394 786.129 148.402 785.872 148.419H766.116ZM766.178 188.037V207.929H789.648C789.852 207.941 790.056 207.947 790.26 207.947C790.327 207.947 790.395 207.946 790.463 207.945C795.772 207.81 799.981 203.389 799.845 198.089L799.782 198.068C799.812 197.634 799.81 197.177 799.772 196.702C799.38 191.826 795.241 188.007 790.348 188.007C790.095 188.007 789.839 188.017 789.586 188.037H766.178ZM794.099 227.904H739.569V128.548H789.335C797.469 128.548 804.956 130.953 810.418 135.319C816.33 140.044 819.455 146.657 819.455 154.444C819.742 163.84 814.511 172.688 806.129 176.986V177.028C817.767 180.91 824.443 189.575 824.443 200.796C824.443 208.925 821.382 215.818 815.589 220.73C810.142 225.356 802.51 227.904 794.099 227.904Z" fill="white"/>
<path fill-rule="evenodd" clip-rule="evenodd" d="M878.661 152.191L864.604 190.122H892.655L878.661 152.191ZM851.073 226.597H851.069L825.572 226.593L864.416 128.299H892.697L931.6 226.585L906.211 226.593L899.524 208.554H857.756L851.075 226.593L851.073 226.597Z" fill="white"/>
<path fill-rule="evenodd" clip-rule="evenodd" d="M960.83 167.221L1010.85 226.559H1031.51V128.295H1007.66V188.217L957.28 128.295H936.98V226.559H960.83V167.221Z" fill="white"/>
<mask id="mask0_15_18" style="mask-type:alpha" maskUnits="userSpaceOnUse" x="244" y="128" width="901" height="99">
<path fill-rule="evenodd" clip-rule="evenodd" d="M244 128.294H1144.62V226.558H244V128.294Z" fill="white"/>
</mask>
<g mask="url(#mask0_15_18)">
<path fill-rule="evenodd" clip-rule="evenodd" d="M1073.87 168.68V128.294H1050.02V226.558H1073.87V188.716H1087.43L1115.27 226.558H1144.62L1108.09 179.084L1138.04 128.419H1111.57L1088.87 168.68H1073.87Z" fill="white"/>
<path fill-rule="evenodd" clip-rule="evenodd" d="M681.194 149.464C665.741 149.464 653.169 162.017 653.169 177.446C653.169 192.875 665.741 205.428 681.194 205.428C696.65 205.428 709.224 192.875 709.224 177.446C709.224 162.017 696.659 149.464 681.215 149.464H681.194ZM681.215 228.032C653.278 228.032 630.55 205.339 630.55 177.446C630.55 149.553 653.278 126.86 681.215 126.86C709.154 126.86 731.885 149.553 731.885 177.446C731.885 205.339 709.154 228.032 681.215 228.032Z" fill="white"/>
<path fill-rule="evenodd" clip-rule="evenodd" d="M520.044 148.418C504.099 125.367 472.455 119.586 449.368 135.508C426.282 151.429 420.493 183.024 436.438 206.075C452.384 229.125 484.025 234.905 507.114 218.984C511.205 216.164 514.857 212.759 517.956 208.881L501.94 192.869C493.424 205.841 475.99 209.467 462.998 200.964C450.003 192.462 446.374 175.055 454.887 162.083C463.403 149.11 480.839 145.485 493.831 153.985C497.972 156.695 501.326 160.45 503.548 164.868L520.044 148.418Z" fill="white"/>
<path fill-rule="evenodd" clip-rule="evenodd" d="M286.471 226.559H310.234V148.769H339.301V128.295H257.32V148.769H286.471V226.559Z" fill="white"/>
<path fill-rule="evenodd" clip-rule="evenodd" d="M422.997 206.585H371.821V186.548H416.543V166.575H371.821V148.331H422.266V128.295H347.967V226.559H422.997V206.585Z" fill="white"/>
<path fill-rule="evenodd" clip-rule="evenodd" d="M551.436 167.221L601.455 226.559H622.11V128.295H598.28V188.217L547.886 128.295H527.586V226.559H551.436V167.221Z" fill="white"/>
</g>
</svg>
